<svg width="312" height="416" viewBox="0 0 312 416" fill="none" xmlns="http://www.w3.org/2000/svg">
<path d="M207.736 3.96242C208.413 6.29357 207.689 9.34933 206.695 11.6717C206.386 12.3995 205.008 12.0309 204.733 12.5334C204.197 13.516 204.873 14.4315 204.235 15.4025C204.017 15.7243 201.833 15.3237 201.655 15.6612C200.69 17.5103 201.246 19.2597 200.782 21.1329C198.492 30.3597 197.673 39.4294 196.678 48.769C196.352 51.8486 194.371 55.5921 195.237 58.773C195.34 59.1443 197.256 58.9229 197.414 58.9935C199.832 60.1016 195.964 59.7332 195.45 60.4567C193.42 63.3282 193.244 66.5213 193.983 69.2847C194.304 70.4604 198.11 69.2816 195.973 70.4654C195.829 70.5476 193.794 70.2493 193.577 70.5717C193.089 71.3029 193.453 72.6901 193.292 73.2568C192.971 74.3489 192.991 74.5295 192.968 75.5625C192.918 76.9747 191.907 78.6543 192.368 80.1694C192.472 80.4928 194.558 80.0646 194.913 80.5804C195.268 81.0966 195.091 82.4623 194.599 82.9227C194.107 83.3832 192.468 83.1871 192.092 83.2686C188.92 83.9391 193.313 85.5188 193.422 85.722C195.273 89.4279 192.77 92.6059 192.777 96.0846C192.788 98.7254 193.614 101.549 193.501 104.062C193.358 107.056 192.228 109.593 192.422 112.501C192.44 112.808 194.893 112.448 194.92 112.823C195.205 116.806 194.938 120.761 193.282 124.727C193.114 125.125 190.96 124.612 190.664 125.009C188.894 127.442 184.643 131.291 194.018 132.736C193.652 134.384 193.274 136.384 191.384 137.859C190.168 138.809 187.822 137.886 188.823 139.054C189.046 139.317 191.1 138.974 191.279 139.369C192.031 141.032 191.364 142.849 192.425 144.493C192.646 144.828 194.487 144.737 194.818 144.831C197.503 145.628 193.065 146.954 192.742 147.244C190.338 149.445 191.284 151.053 191.225 153.104C191.211 153.58 193.683 153.017 193.758 153.475C194.112 155.851 193.9 158.311 192.803 160.637C192.553 161.155 190.447 160.679 190.219 160.926C189.243 162.016 193.221 162.258 192.362 163.303C192.186 163.524 190.382 163.399 190.184 163.44C187.076 164.069 191.48 164.616 191.578 164.777C192.906 166.825 188.308 168.133 188.959 170.111C189.042 170.348 191.323 169.814 191.416 170.479C192.046 174.91 191.419 179.596 189.594 183.982C189.313 184.664 187.6 184.177 187.388 184.22C184.087 184.92 188.51 185.372 188.677 185.595C189.876 187.349 186.167 188.987 191.435 190.179C189.607 197.608 192.565 205.003 187.845 212.371C187.791 212.464 185.612 212.296 185.513 212.483C184.289 214.734 187.675 214.301 191.816 215.791C192.855 216.166 187.856 217.307 187.49 217.408C186.139 217.775 182.899 217.394 182.637 217.517C180.583 218.536 191.301 218.37 191.305 219.745C191.287 219.788 189.314 219.608 189.118 219.723C188.502 220.081 189.286 220.437 188.607 220.788C187.036 221.591 181.828 221.877 184.859 223.103C185.252 223.258 191.332 223.021 191.044 224.249C190.925 224.738 191.029 226.904 190.635 227.511C190.242 228.118 188.282 227.702 188.198 227.745C185.607 229.379 184.533 228.759 180.698 229.578C176.877 230.396 185.99 230.169 187.007 230.503C188.022 230.837 185.884 232.035 185.141 232.329C184.398 232.624 183.153 232.257 182.732 232.518C179.984 234.253 187.256 233.28 188.702 233.851C192.127 235.199 185.369 236.248 184.706 237.482C184.528 237.816 186.067 237.543 186.211 237.841C186.76 239.018 184.652 239.726 186.585 241.065C186.9 241.284 190.964 242.367 187.982 243.068C187.552 243.167 185.868 242.885 185.49 243.387C184.924 244.136 184.556 245.487 185.119 246.293C185.535 246.887 188.311 246.206 187.449 246.954C187.064 247.287 185.44 246.67 184.852 247.296C184.265 247.917 184.336 249.507 184.392 250.112C184.449 250.716 186.555 250.386 186.696 250.435C187.509 250.73 188.524 251.889 188.521 251.991C188.778 257.157 185.23 261.921 186.404 266.951C186.493 267.346 188.713 267.083 188.75 267.143C189.68 268.495 183.778 267.429 181.802 268.373C186.307 268.237 185.491 268.794 185.985 269.746C186.227 270.204 187.971 269.955 188.15 269.996C190.799 270.677 187.377 271.15 186.677 271.272C184.102 271.723 187.145 272.213 185.424 272.52C183.715 272.826 181.183 272.121 181.215 273.034C182.828 273.29 187.042 272.612 187.725 273.305C190.308 275.92 187.002 280.802 186.658 282.904C186.315 285.003 186.613 285.681 186.03 286.903C184.976 289.112 188.103 288.303 189.534 289.674C190.965 291.05 183.272 290.381 181.618 290.579C179.965 290.773 181.667 290.985 180.758 291.226C179.85 291.467 178.725 290.946 178.384 291.512C178.043 292.078 180.984 293.626 182.713 293.827C186.377 294.252 190.221 293.554 188.87 295.052C188.79 295.138 186.767 294.859 186.563 295.189C185.006 297.81 184.909 300.533 183.532 303.15C183.34 303.51 181.089 303.188 180.952 303.398C179.512 305.58 183.307 304.8 187.522 305.996C181.912 305.727 178.481 306.388 178.448 308.044C178.426 309.04 180.876 308.868 182.602 309.512C183.123 309.705 181.44 310.41 182.593 310.537C186.359 310.958 190.575 310.295 188.896 312.002C188.816 312.077 186.755 311.838 186.63 312.097C185.813 313.77 189.752 313.971 190.229 315.779C190.603 317.196 188.201 319.718 187.81 321.332C181.504 321.298 182.948 322.822 187.296 323.441C187.118 324.488 187.364 325.62 186.763 326.632C186.558 326.98 184.732 326.751 184.535 326.795C181.44 327.469 185.67 327.924 185.836 328.151C187.448 330.601 184.242 332.598 187.376 334.936C187.488 335.019 191.869 335.154 188.67 335.779C188.45 335.819 186.457 335.047 186.303 336.147C186.148 337.247 183.8 339.322 185.83 340.849C186.319 341.219 189.875 342.154 187.096 342.904C186.719 343.004 185.463 342.895 184.763 343.039C182.536 343.506 186.963 343.76 183.202 344.309C179.441 344.857 176.624 345.997 179.219 347.538C179.294 347.587 182.804 347.952 182.748 348.436C182.657 349.21 181.925 350.307 181.948 351.115C181.961 351.501 184.14 351.254 184.18 351.321C185.401 353.921 183.458 355.771 182.615 358.556C182.456 359.066 185.428 360.534 183.078 361.522C180.506 362.607 169.808 361.492 172.357 363.986C173.376 364.992 186.949 366.266 179.917 368.074C181.66 371.581 178.061 374.824 180.549 378.34C180.659 378.498 184.447 378.998 184.395 379.37C184.311 379.922 182.541 380.225 182.424 380.619C181.891 382.27 183.406 383.781 183.17 385.373C183.085 385.978 181.254 385.766 181.152 386.487C181.051 387.208 183.462 387.688 182.297 388.665C181.41 389.402 176.483 390.139 175.909 391.118C180.769 391.155 180.669 391.827 181.951 393.022C182.2 393.252 183.892 393.006 184.097 393.114C184.969 393.556 183.567 393.966 184.516 394.385C184.744 394.487 186.404 394.492 186.684 394.576C189.128 395.286 185.394 396.455 184.744 396.656C182.276 397.426 184.434 397.786 183.462 398.376C182.49 398.966 181.275 398.084 180.685 398.773C179.465 400.201 179.733 402.035 179.657 403.485C179.637 404.063 181.852 403.669 181.901 403.751C182.463 404.947 180.106 406.157 184.519 406.82C173.108 407.65 185.626 407.542 183.342 409.252C183.157 409.386 177.761 409.558 176.969 409.041C176.177 408.523 177.864 407.739 176.629 407.022C176.339 406.852 171.283 405.879 170.976 405.746C168.583 404.706 176.646 404.559 177.089 404.504C181.869 403.879 176.421 402.69 176.045 402.377C174.32 400.944 175.454 399.727 174.223 398.529C173.428 397.745 168.146 397.668 168.307 397.053C168.842 395.007 176.21 394.293 169.821 392.365C168.459 391.952 162.685 392.363 167.225 390.881C167.511 390.788 171.664 389.689 169.037 389.053C168.706 388.974 167.024 388.976 166.882 388.871C165.968 388.165 167.308 387.695 166.666 386.927C166.024 386.159 165.067 385.235 165.638 384.358C165.979 383.829 169.114 383.151 169.881 382.898C172.092 382.183 168.467 381.417 171.145 380.974C173.835 380.528 177.921 381.401 179.66 380.23C175.289 380.187 170.802 380.087 166.406 380.017C166.56 377.452 167.974 374.928 167.78 372.354C167.752 372.035 165.402 372.361 165.311 372.019C164.938 370.576 166.613 369.315 165.946 367.819C165.421 366.66 162.932 365.39 162.306 364.178C167.307 363.438 165.609 361.641 166.067 360.335C166.224 359.877 167.56 359.908 167.996 359.583C169.608 358.355 165.188 358.93 164.492 358.594C161.524 357.15 171.528 357.027 171.281 355.325C171.271 355.235 165.938 354.133 165.606 353.981C163.441 353.016 167.463 353.821 167.857 353.218C168.577 352.115 169.85 351.349 168.288 350.056C167.826 349.679 164.502 348.775 167.073 348.043C167.409 347.946 169.172 348 169.275 347.922C170.996 346.519 165.457 346.482 163.581 345.68C161.706 344.878 165.529 343.639 166.631 343.387C169.482 342.727 167.85 343.892 168.13 343.928C171.459 344.347 170.886 343.444 171.167 342.753C176.598 342.653 176.272 341.688 171.437 342.038C170.909 342.078 171.415 342.615 171.167 342.753C165.838 342.147 165.156 341.086 170.135 339.914C172.469 339.366 175.19 339.884 174.195 338.218C173.745 337.462 170.006 337.754 168.986 337.087C166.66 335.562 170.149 333.58 169.599 332.008C169.399 331.438 167.353 331.994 167.146 331.604C166.59 330.569 168.126 329.656 167.339 328.617C167.265 328.523 165.123 328.753 165.095 328.43C164.846 325.98 166.219 323.847 166.257 321.289C166.274 320.053 165.093 317.843 165.33 316.563C165.729 314.344 168.845 311.614 168.088 309.719C167.604 308.482 165.461 308.753 164 308.224C161.17 307.201 166.24 305.392 167.025 305.148C167.051 305.141 167.556 306.205 168.656 305.637C170.949 305.307 167.035 305.16 167.025 305.148C167.532 304.988 168.019 302.863 167.609 302.441C167.385 302.212 165.355 302.34 165.276 302.22C163.459 299.378 162.943 296.532 163.892 293.649C163.933 293.599 166.205 293.675 166.273 293.556C167.283 291.887 164.504 290.819 162.855 289.443C161.206 288.067 161.758 286.975 165.657 286.161C165.166 285.123 166.89 283.633 167.936 282.776C168.982 281.919 164.561 281.799 164.473 281.724C161.676 279.371 164.206 278.012 164.6 275.571C164.795 274.411 164.154 272.11 163.67 270.853C163.281 269.861 164.317 269.262 163.654 268.348C163.566 268.224 161.597 268.349 161.522 268.311C159.166 267.29 163.979 267.781 164.838 267.57C167.964 266.806 169.628 266.334 168.158 265.026C167.821 264.725 160.892 263.846 160.487 263.296C159.973 262.582 162.456 262.852 161.855 262.103C161.806 262.039 160.273 262.052 160.341 261.591C160.634 259.447 161.526 257.109 161.372 254.881C161.357 254.577 158.927 254.967 158.865 254.527C158.577 252.464 158.667 250.202 159.805 248.192C160.092 247.697 161.794 248.008 162.299 247.9C165.356 247.241 160.914 246.306 160.83 246.151C158.695 242.471 162.715 239.654 160.801 235.903C160.689 235.699 155.927 234.127 160.011 233.426C160.283 233.378 164.461 232.684 161.604 232.071C161.425 232.033 159.274 232.465 159.494 231.71C159.712 230.956 158.276 229.742 160.639 228.705C161.384 228.377 165.552 227.601 162.229 226.621C161.997 226.557 154.485 225.046 159.668 224.506C160.521 224.418 166.007 224.51 163.194 223.341C162.649 223.118 161.426 223.523 160.662 222.935C159.484 222.033 160.953 220.839 158.51 219.731C158.077 219.538 154.354 218.715 157.18 218.055C157.622 217.952 159.454 218.148 159.659 217.8C160.642 216.142 159.417 214.407 160.684 212.725C161.129 212.129 164.089 212.433 164.883 211.812C165.676 211.191 166.439 209.939 165.086 209.289C163.732 208.639 159.014 209.349 158.637 208.375C156.997 204.14 159.765 199.945 160.17 195.716C160.23 195.089 158.542 195.609 158.51 194.684C158.384 191.277 156.801 185.394 160.389 182.437C163.262 180.067 165.449 183.049 166.619 181.239C167.177 180.365 161.691 179.42 161.518 179.209C159.764 177.149 162.194 175.717 161.449 173.863C161.294 173.48 159.071 173.855 158.964 173.529C158.578 172.416 159.57 171.246 159.389 170.182C159.302 169.705 157.604 169.793 157.735 169.354C158.029 168.303 158.743 167.374 160.335 166.35C160.48 166.257 162.592 166.886 162.671 166.109C162.792 164.851 164.362 163.289 162.74 161.842C162.253 161.412 158.372 161.395 161.052 160.472C161.612 160.279 166.272 160.526 162.245 159.45C161.576 159.269 156.145 157.463 159.646 156.576C160.567 156.342 164.381 155.745 163.781 155.229C163.686 155.159 161.601 155.439 161.398 155.012C160.718 153.503 160.94 151.923 160.287 150.373C160.109 149.959 157.951 150.576 157.754 149.959C157.209 148.263 157.758 146.145 158.433 144.487C158.687 143.876 160.473 144.298 160.668 144.254C163.831 143.538 159.562 143.115 159.313 142.878C157.822 141.401 159.827 140.277 159.297 138.915C159.156 138.54 157.12 138.806 156.939 138.731C155.165 137.956 158.821 138.534 159.224 138.043C160.365 136.667 160.201 135.134 159.941 133.744C159.843 133.233 157.482 133.807 157.421 133.349C157.014 130.635 157.24 127.814 158.541 125.166C158.791 124.668 160.608 124.981 161.023 124.878C163.928 124.161 159.966 123.112 159.589 122.87C157.866 121.772 159.473 121.345 159.173 120.375C157.679 115.638 158.744 109.788 159.402 105.316C160.248 99.4879 161.977 94.9658 161.528 89.4084C161.502 89.0552 159.084 89.4113 159.03 89.1069C158.447 85.1758 159.392 81.3058 158.694 77.3669C158.641 77.0436 156.349 77.5096 156.186 76.9908C155.838 75.9266 155.962 74.5786 156.694 73.5027C157.047 72.9779 159.014 73.6819 159.329 73.1536C160.066 71.9236 160.229 70.6052 159.862 69.3418C159.7 68.8042 157.356 69.6153 157.329 68.9165C157.096 64.1563 156.693 59.4812 159.728 54.6708C159.937 54.341 164.701 54.0516 163.788 53.3505C162.465 53.2976 160.91 53.3005 159.497 53.2775C158.735 46.3478 160.387 39.4888 160.642 32.5396C160.653 32.2466 158.128 32.753 158.135 32.1857C158.172 28.9027 157.473 25.7146 159.982 22.3564C160.228 22.0232 164.669 22.1941 163.997 21.2122C163.875 21.039 163.282 19.5601 162.318 19.1778C162.173 19.1259 160.1 19.3957 160.039 18.9191C159.725 16.1498 160.198 13.2476 161.464 10.4831C161.673 10.0369 163.88 10.512 164.048 10.1942C165.22 7.94001 163.542 5.48804 165.546 3.334C166.896 1.89217 170.711 2.42598 174.468 1.65981C174.998 1.55144 175.082 0.658611 177.267 0.61244C182.762 0.493906 188.78 0.926363 194.637 0.748915C195.899 0.711425 194.54 -0.484302 197.589 0.223645C197.793 0.273103 198.805 1.14001 199.839 1.35353C200.554 1.50219 202.777 1.2343 203.692 1.53761C204.607 1.8409 202.744 2.17417 203.819 2.67702C204.908 3.17964 207.436 2.95864 207.736 3.96242ZM172.611 278.916C174.734 278.123 166.958 278.006 168.818 278.864C168.917 278.906 172.507 278.957 172.611 278.916ZM173.839 374.942C177.269 373.905 172.226 373.195 169.577 373.927C166.931 374.659 172.799 375.259 173.839 374.942ZM176.343 385.702C179.048 384.489 168.02 384.298 170.25 385.597C170.376 385.672 176.186 385.773 176.343 385.702ZM175.537 5.21291C175.64 5.20196 175.741 4.56016 175.639 4.54482C173.169 4.20307 172.969 5.48641 175.537 5.21291ZM179.07 396.379C180.561 396 178.839 394.91 176.984 395.38C175.492 395.759 177.214 396.85 179.07 396.379ZM180.91 237.515C181.026 237.503 181.131 237.043 180.476 237.052C178.366 237.083 178.961 237.724 180.91 237.515ZM179.197 414.525C179.612 411.844 188.721 410.218 187.693 413.138C187.507 413.667 184.788 411.998 183.967 412.671C182.471 413.903 188.19 414.72 185.125 415.977C184.564 416.204 179.153 414.678 179.184 414.52C179.188 414.522 179.192 414.523 179.197 414.525ZM181.951 278.459C182.054 278.444 182.152 277.807 182.05 277.791C179.581 277.446 179.383 278.73 181.951 278.459ZM185.719 210.666C185.938 210.631 186.143 209.153 185.941 209.105C181.904 208.334 181.478 211.322 185.719 210.666ZM187.642 321.357C190.126 322.052 190.418 322.883 187.299 323.437C187.465 322.747 187.489 322.051 187.642 321.357Z" fill="white"/>
<path d="M309.028 132.251C307.28 132.889 304.988 132.207 303.246 131.27C302.7 130.979 302.977 129.681 302.6 129.422C301.863 128.917 301.176 129.554 300.448 128.952C300.207 128.746 300.507 126.689 300.254 126.521C298.867 125.611 297.555 126.135 296.15 125.698C289.23 123.541 282.428 122.768 275.423 121.831C273.114 121.524 270.306 119.657 267.92 120.473C267.642 120.571 267.808 122.376 267.755 122.525C266.924 124.803 267.2 121.158 266.657 120.674C264.504 118.762 262.109 118.595 260.036 119.292C259.155 119.594 260.039 123.18 259.151 121.167C259.089 121.031 259.313 119.114 259.071 118.909C258.523 118.449 257.482 118.792 257.057 118.64C256.238 118.338 256.103 118.357 255.328 118.335C254.269 118.288 253.009 117.335 251.873 117.77C251.63 117.868 251.952 119.834 251.565 120.168C251.178 120.502 250.153 120.336 249.808 119.872C249.463 119.409 249.61 117.864 249.549 117.51C249.046 114.521 247.861 118.66 247.709 118.763C244.929 120.507 242.546 118.149 239.937 118.156C237.956 118.166 235.838 118.944 233.954 118.837C231.708 118.703 229.805 117.638 227.624 117.821C227.394 117.838 227.664 120.149 227.382 120.174C224.395 120.443 221.429 120.191 218.455 118.631C218.157 118.473 218.541 116.443 218.243 116.164C216.419 114.496 213.532 110.49 212.448 119.325C211.212 118.98 209.712 118.624 208.606 116.843C207.893 115.696 208.586 113.486 207.71 114.429C207.512 114.639 207.769 116.575 207.473 116.744C206.226 117.453 204.864 116.823 203.63 117.824C203.379 118.032 203.448 119.766 203.376 120.079C202.779 122.608 201.784 118.427 201.567 118.123C199.916 115.857 198.71 116.748 197.172 116.693C196.815 116.679 197.237 119.009 196.893 119.08C195.112 119.414 193.266 119.213 191.522 118.18C191.134 117.944 191.491 115.959 191.306 115.745C190.488 114.825 190.307 118.574 189.523 117.764C189.357 117.598 189.45 115.899 189.42 115.712C188.948 112.783 188.538 116.933 188.417 117.025C186.881 118.277 185.9 113.944 184.417 114.558C184.239 114.636 184.639 116.785 184.141 116.873C180.817 117.466 177.303 116.875 174.013 115.156C173.502 114.891 173.867 113.276 173.835 113.077C173.31 109.967 172.971 114.135 172.804 114.292C171.488 115.422 170.259 111.926 169.366 116.891C163.794 115.168 158.248 117.955 152.722 113.508C152.652 113.457 152.778 111.404 152.637 111.31C150.95 110.157 151.274 113.348 150.157 117.249C149.876 118.229 149.02 113.518 148.944 113.173C148.668 111.901 148.955 108.847 148.862 108.6C148.098 106.665 148.222 116.765 147.191 116.768C147.159 116.751 147.294 114.892 147.208 114.707C146.939 114.127 146.672 114.866 146.409 114.226C145.807 112.745 145.593 107.838 144.673 110.694C144.556 111.064 144.734 116.793 143.813 116.523C143.446 116.41 141.822 116.508 141.366 116.137C140.912 115.766 141.224 113.92 141.191 113.84C139.966 111.399 140.431 110.387 139.817 106.773C139.203 103.172 139.373 111.76 139.123 112.718C138.872 113.674 137.974 111.66 137.753 110.96C137.532 110.259 137.808 109.086 137.611 108.69C136.31 106.1 137.04 112.953 136.612 114.316C135.601 117.543 134.814 111.174 133.888 110.55C133.638 110.382 133.842 111.832 133.619 111.968C132.737 112.486 132.205 110.499 131.201 112.321C131.037 112.618 130.225 116.447 129.699 113.637C129.625 113.231 129.836 111.644 129.46 111.289C128.898 110.755 127.885 110.409 127.281 110.939C126.834 111.332 127.346 113.947 126.784 113.134C126.535 112.771 126.997 111.242 126.528 110.688C126.062 110.134 124.87 110.201 124.416 110.254C123.963 110.308 124.211 112.292 124.174 112.425C123.953 113.191 123.083 114.147 123.007 114.145C119.132 114.387 115.559 111.044 111.787 112.15C111.491 112.234 111.688 114.326 111.643 114.36C110.629 115.237 111.428 109.675 110.72 107.814C110.823 112.059 110.405 111.29 109.691 111.755C109.347 111.983 109.534 113.627 109.503 113.795C108.992 116.292 108.637 113.067 108.546 112.407C108.208 109.981 107.84 112.848 107.61 111.226C107.38 109.616 107.909 107.23 107.225 107.26C107.033 108.78 107.541 112.751 107.021 113.394C105.06 115.829 101.399 112.713 99.8217 112.39C98.2479 112.066 97.7395 112.347 96.8224 111.797C95.1659 110.804 95.7729 113.751 94.7444 115.099C93.7128 116.447 94.2142 109.199 94.0659 107.64C93.9204 106.083 93.7614 107.686 93.5804 106.83C93.3999 105.974 93.7906 104.914 93.3661 104.593C92.9414 104.272 91.7801 107.043 91.6296 108.672C91.3114 112.124 91.8347 115.747 90.7108 114.474C90.6462 114.398 90.8559 112.492 90.6084 112.3C88.6427 110.832 86.6006 110.741 84.6373 109.444C84.3673 109.262 84.6087 107.142 84.4516 107.012C82.8152 105.656 83.4001 109.231 82.5033 113.203C82.7047 107.917 82.2086 104.684 80.9667 104.653C80.2201 104.632 80.3487 106.94 79.8658 108.567C79.7209 109.058 79.1926 107.473 79.097 108.558C78.7813 112.107 79.2789 116.08 77.9984 114.498C77.9423 114.423 78.1211 112.48 77.927 112.363C76.6722 111.593 76.5221 115.305 75.1658 115.754C74.1026 116.107 72.2118 113.843 71.0013 113.475C71.0268 107.533 69.8833 108.893 69.4195 112.991C68.6339 112.823 67.7854 113.055 67.0261 112.488C66.7648 112.295 66.9364 110.575 66.9035 110.389C66.3982 107.472 66.0566 111.459 65.8871 111.615C64.0492 113.134 62.5518 110.113 60.7978 113.065C60.7355 113.172 60.6347 117.3 60.1658 114.286C60.1355 114.078 60.7148 112.2 59.8897 112.055C59.0645 111.909 57.5088 109.696 56.3632 111.609C56.0859 112.069 55.3847 115.42 54.8219 112.802C54.7469 112.447 54.8289 111.263 54.7207 110.604C54.3708 108.505 54.1798 112.677 53.7686 109.133C53.3573 105.588 52.5019 102.934 51.3465 105.379C51.3098 105.45 51.0362 108.757 50.6729 108.705C50.0929 108.619 49.2695 107.93 48.6638 107.951C48.3739 107.963 48.5595 110.016 48.5091 110.054C46.5594 111.204 45.1718 109.374 43.0831 108.579C42.7002 108.43 41.5998 111.23 40.8586 109.016C40.0447 106.593 40.8811 96.5116 39.0102 98.9134C38.2556 99.874 37.3003 112.664 35.9443 106.037C33.3144 107.679 30.8822 104.288 28.245 106.632C28.1264 106.736 27.7513 110.306 27.4726 110.257C27.0587 110.178 26.8315 108.51 26.5359 108.4C25.2975 107.897 24.1641 109.325 22.9701 109.103C22.5167 109.022 22.6753 107.297 22.1346 107.201C21.5942 107.106 21.2339 109.377 20.5016 108.28C19.9486 107.444 19.3956 102.801 18.6616 102.26C18.6336 106.84 18.1295 106.745 17.2334 107.954C17.0611 108.189 17.2458 109.783 17.1643 109.976C16.8328 110.798 16.5259 109.476 16.211 110.371C16.1343 110.586 16.1308 112.15 16.0682 112.413C15.5357 114.717 14.6585 111.199 14.5078 110.586C13.9305 108.26 13.6605 110.294 13.2177 109.378C12.7755 108.462 13.4366 107.317 12.9201 106.761C11.8494 105.611 10.4739 105.864 9.38644 105.792C8.95261 105.773 9.24857 107.861 9.18649 107.906C8.28937 108.436 7.38211 106.215 6.88467 110.374C6.26266 99.6213 6.34369 111.417 5.06131 109.264C4.9603 109.09 4.83182 104.005 5.2196 103.259C5.60739 102.513 6.1955 104.103 6.73352 102.939C6.86093 102.666 7.59085 97.901 7.69043 97.6124C8.47052 95.3567 8.58112 102.955 8.62234 103.373C9.09045 107.876 9.9823 102.743 10.2172 102.389C11.2918 100.763 12.2046 101.832 13.1034 100.672C13.6912 99.9221 13.7487 94.9448 14.2103 95.0972C15.7447 95.6008 16.2802 102.544 17.7261 96.5238C18.0361 95.2398 17.728 89.7997 18.8389 94.0774C18.9087 94.347 19.7335 98.2603 20.21 95.7851C20.2698 95.473 20.268 93.8876 20.3469 93.7544C20.8759 92.8929 21.2286 94.1559 21.8049 93.551C22.3811 92.9461 23.0739 92.0443 23.7318 92.582C24.1283 92.9036 24.637 95.8574 24.8268 96.5806C25.3626 98.6639 25.9373 95.2482 26.2693 97.7709C26.6041 100.306 25.9496 104.157 26.8275 105.795C26.86 101.676 26.9347 97.4482 26.987 93.3058C28.9109 93.4508 30.804 94.7827 32.7344 94.6008C32.9737 94.5741 32.7289 92.3597 32.9855 92.274C34.0679 91.9222 35.0134 93.5008 36.1359 92.8721C37.0048 92.377 37.9576 90.0325 38.8662 89.4418C39.4212 94.1551 40.7694 92.555 41.7488 92.9858C42.092 93.1346 42.069 94.3934 42.313 94.8041C43.2335 96.323 42.8021 92.1579 43.0545 91.5024C44.1372 88.7049 44.2298 98.1324 45.5063 97.8995C45.5739 97.8904 46.4005 92.8651 46.5144 92.5521C47.2377 90.5115 46.6342 94.3012 47.0869 94.6725C47.9135 95.3511 48.4878 96.5512 49.4577 95.0793C49.7405 94.6433 50.4189 91.5111 50.968 93.9338C51.0403 94.2511 51.0004 95.9121 51.0585 96.0094C52.1111 97.6309 52.1388 92.4117 52.7402 90.644C53.3419 88.8768 54.271 92.4797 54.4601 93.5181C54.9547 96.2044 54.081 94.6661 54.0542 94.9297C53.7395 98.0669 54.4172 97.5268 54.9349 97.7918C55.01 102.909 55.7339 102.602 55.4717 98.0461C55.442 97.5484 55.0389 98.0256 54.9349 97.7918C55.3895 92.7709 56.1853 92.1278 57.0642 96.8199C57.4756 99.0189 57.0867 101.583 58.3365 100.645C58.9037 100.222 58.6845 96.6979 59.1851 95.7372C60.3287 93.5453 61.8147 96.8323 62.9937 96.3144C63.4216 96.1264 63.0047 94.1976 63.2972 94.0026C64.0733 93.4792 64.7577 94.9264 65.5371 94.185C65.6077 94.1154 65.4352 92.0963 65.6776 92.0706C67.515 91.8361 69.115 93.1294 71.0334 93.1652C71.9604 93.1816 73.6176 92.068 74.5778 92.2919C76.242 92.668 78.2894 95.6041 79.7111 94.8909C80.6384 94.4343 80.4349 92.4148 80.8322 91.0388C81.5989 88.3716 82.9561 93.1492 83.1388 93.889C83.1444 93.9134 82.3465 94.3895 82.7722 95.4262C83.0198 97.5863 83.1299 93.8983 83.1388 93.889C83.2588 94.3669 84.8528 94.8253 85.1693 94.4393C85.3413 94.2283 85.2451 92.3149 85.3347 92.2411C87.4661 90.5288 89.6012 90.0425 91.7629 90.9371C91.801 90.9758 91.7437 93.116 91.8332 93.1802C93.0846 94.1318 93.886 91.5136 94.9181 89.9592C95.9501 88.4054 96.7686 88.9258 97.3794 92.6C98.1581 92.1374 99.2752 93.7617 99.9181 94.7473C100.561 95.7329 100.651 91.5668 100.707 91.4844C102.471 88.8483 103.491 91.2329 105.322 91.6041C106.192 91.7876 107.918 91.1833 108.86 90.7278C109.605 90.3608 110.053 91.3371 110.739 90.7128C110.832 90.6295 110.738 88.7745 110.767 88.7031C111.532 86.4837 111.164 91.0185 111.322 91.8284C111.896 94.7736 112.25 96.3422 113.23 94.9566C113.457 94.6394 114.115 88.1099 114.528 87.7281C115.064 87.2436 114.861 89.584 115.423 89.0171C115.471 88.9707 115.461 87.5269 115.807 87.5905C117.415 87.867 119.168 88.7072 120.839 88.5625C121.068 88.5483 120.775 86.2581 121.105 86.1998C122.652 85.9284 124.348 86.0131 125.856 87.0851C126.227 87.3561 125.994 88.9597 126.075 89.4358C126.569 92.3166 127.271 88.1308 127.386 88.0511C130.147 86.0396 132.259 89.8277 135.073 88.0242C135.226 87.9183 136.405 83.4311 136.931 87.2795C136.967 87.5355 137.487 91.4729 137.947 88.7808C137.976 88.6124 137.651 86.5854 138.217 86.792C138.783 86.9981 139.694 85.6445 140.471 87.8716C140.718 88.5732 141.3 92.5008 142.034 89.37C142.082 89.1514 143.216 82.0721 143.621 86.9565C143.686 87.7605 143.618 92.9293 144.494 90.2792C144.662 89.7654 144.358 88.6125 144.799 87.8926C145.475 86.783 146.371 88.1674 147.202 85.8649C147.347 85.4573 147.964 81.949 148.459 84.6118C148.536 85.0288 148.389 86.7544 148.65 86.9475C149.893 87.8739 151.195 86.7196 152.457 87.9135C152.904 88.333 152.675 91.1227 153.141 91.8702C153.607 92.6175 154.546 93.3364 155.033 92.0616C155.521 90.7863 154.988 86.3403 155.719 85.9845C158.895 84.4394 162.041 87.0475 165.213 87.429C165.683 87.486 165.293 85.8951 165.987 85.8649C168.542 85.7465 172.955 84.2549 175.173 87.6354C176.949 90.343 174.713 92.4043 176.071 93.5062C176.726 94.0318 177.435 88.8628 177.593 88.7001C179.138 87.0471 180.212 89.3368 181.603 88.6343C181.89 88.4885 181.609 86.3935 181.853 86.2926C182.688 85.9292 183.565 86.8644 184.363 86.6933C184.721 86.6118 184.655 85.0116 184.984 85.1351C185.772 85.4122 186.469 86.0848 187.237 87.5845C187.307 87.7212 186.835 89.7117 187.418 89.7857C188.362 89.8999 189.533 91.3793 190.619 89.8515C190.941 89.3919 190.954 85.7349 191.646 88.2604C191.791 88.7879 191.606 93.1792 192.412 89.3849C192.548 88.7544 193.903 83.6367 194.568 86.9356C194.743 87.8038 195.191 91.3972 195.578 90.8325C195.631 90.7423 195.42 88.778 195.741 88.5864C196.873 87.9453 198.058 88.1549 199.22 87.5397C199.531 87.3715 199.068 85.3388 199.531 85.1531C200.803 84.6393 202.391 85.1569 203.635 85.7931C204.093 86.0315 203.776 87.7153 203.81 87.8986C204.346 90.879 204.663 86.8561 204.842 86.6215C205.949 85.2169 206.793 87.1066 207.813 86.6066C208.095 86.4737 207.895 84.5555 207.951 84.3845C208.533 82.7133 208.1 86.1581 208.468 86.5378C209.499 87.613 210.649 87.4588 211.692 87.2137C212.075 87.1208 211.645 84.8967 211.989 84.8391C214.024 84.4558 216.139 84.6686 218.125 85.8948C218.499 86.1297 218.264 87.8424 218.342 88.2335C218.879 90.9703 219.666 87.2373 219.847 86.8817C220.671 85.2581 220.991 86.7726 221.718 86.4899C225.272 85.0825 229.659 86.0856 233.013 86.7053C237.384 87.5028 240.776 89.1321 244.944 88.709C245.209 88.6843 244.941 86.4059 245.17 86.3554C248.118 85.8061 251.021 86.6964 253.975 86.0383C254.217 85.9884 253.868 83.8285 254.257 83.6757C255.055 83.3471 256.066 83.4645 256.873 84.1542C257.267 84.4865 256.739 86.3399 257.135 86.6365C258.057 87.3314 259.046 87.4852 259.994 87.1389C260.397 86.9869 259.788 84.7778 260.313 84.7523C263.883 84.5332 267.389 84.1527 270.997 87.0133C271.244 87.2098 271.461 91.6994 271.987 90.8384C272.027 89.5924 272.025 88.1268 272.042 86.795C277.239 86.0776 282.383 87.634 287.595 87.8746C287.815 87.8843 287.435 85.5054 287.861 85.512C290.323 85.5471 292.714 84.8881 295.233 87.2526C295.483 87.4838 295.354 91.6688 296.091 91.0358C296.221 90.9203 297.33 90.3622 297.617 89.4537C297.656 89.3167 297.453 87.3633 297.811 87.3064C299.888 87.0098 302.064 87.4557 304.138 88.6492C304.472 88.8456 304.116 90.9258 304.354 91.0837C306.045 92.1879 307.884 90.6066 309.499 92.4953C310.581 93.767 310.181 97.3627 310.755 100.902C310.836 101.402 311.506 101.481 311.541 103.54C311.63 108.718 311.305 114.389 311.438 119.908C311.466 121.097 312.363 119.817 311.832 122.69C311.795 122.882 311.145 123.835 310.985 124.81C310.873 125.484 311.074 127.578 310.847 128.441C310.619 129.302 310.369 127.547 309.992 128.56C309.615 129.586 309.781 131.969 309.028 132.251ZM102.813 99.1526C103.408 101.153 103.496 93.8255 102.852 95.5787C102.821 95.6722 102.782 99.0545 102.813 99.1526ZM30.7932 100.31C31.5714 103.542 32.1039 98.7897 31.5549 96.2935C31.006 93.8 30.5561 99.3303 30.7932 100.31ZM22.7237 102.67C23.6332 105.218 23.7764 94.8269 22.8022 96.9275C22.7456 97.0462 22.6705 102.522 22.7237 102.67ZM308.09 101.91C308.099 102.007 308.58 102.102 308.591 102.006C308.848 99.6785 307.885 99.4904 308.09 101.91ZM14.7161 105.239C15 106.644 15.8175 105.022 15.4648 103.274C15.1808 101.868 14.3625 103.49 14.7161 105.239ZM133.863 106.973C133.873 107.083 134.218 107.181 134.211 106.564C134.188 104.576 133.707 105.137 133.863 106.973ZM1.10632 105.358C3.1171 105.749 4.33624 114.333 2.14655 113.364C1.74997 113.189 3.00116 110.627 2.49646 109.853C1.57297 108.444 0.959747 113.833 0.0173035 110.945C-0.153351 110.416 0.991669 105.317 1.10989 105.346C1.10873 105.35 1.10748 105.354 1.10632 105.358ZM103.155 107.954C103.167 108.051 103.645 108.143 103.656 108.047C103.915 105.721 102.953 105.534 103.155 107.954ZM154 111.504C154.027 111.711 155.135 111.904 155.171 111.714C155.75 107.909 153.508 107.508 154 111.504ZM70.9823 113.317C70.461 115.657 69.8374 115.933 69.4219 112.994C69.9399 113.15 70.4614 113.173 70.9823 113.317Z" fill="white"/>
</svg>
